<?xml version="1.0" standalone="no"?><!DOCTYPE svg PUBLIC "-//W3C//DTD SVG 1.1//EN" "http://www.w3.org/Graphics/SVG/1.1/DTD/svg11.dtd"><svg t="1638171807267" class="icon" viewBox="0 0 1024 1024" version="1.1" xmlns="http://www.w3.org/2000/svg" p-id="2965" xmlns:xlink="http://www.w3.org/1999/xlink" width="200" height="200"><defs><style type="text/css"></style></defs><path d="M512 68.266667c245.060267 0 443.733333 198.673067 443.733333 443.733333S757.060267 955.733333 512 955.733333 68.266667 757.060267 68.266667 512 266.939733 68.266667 512 68.266667" fill="#257AE7" p-id="2966"></path><path d="M665.6 520.430933c-7.645867 0-15.291733-2.901333-21.111467-8.7552L512 379.221333l-132.488533 132.471467a29.832533 29.832533 0 0 1-42.222934 0 29.832533 29.832533 0 0 1 0-42.222933l153.6-153.6a29.832533 29.832533 0 0 1 42.222934 0l153.6 153.6A29.832533 29.832533 0 0 1 665.6 520.430933" fill="#FFFFFF" p-id="2967"></path><path d="M512 717.4656a29.866667 29.866667 0 0 1-29.866667-29.866667V354.030933a29.866667 29.866667 0 0 1 59.733334 0v333.568a29.866667 29.866667 0 0 1-29.866667 29.866667" fill="#FFFFFF" p-id="2968"></path></svg>